<?xml version="1.0" encoding="utf-8"?>
<!-- Generator: Adobe Illustrator 26.5.0, SVG Export Plug-In . SVG Version: 6.00 Build 0)  -->
<svg version="1.1" id="Capa_1" xmlns="http://www.w3.org/2000/svg" xmlns:xlink="http://www.w3.org/1999/xlink" x="0px" y="0px"
	 viewBox="0 0 1080 1080" style="enable-background:new 0 0 1080 1080;" xml:space="preserve">
<style type="text/css">
	.st0{fill:none;}
	.st1{fill:#2DA9A3;}
	.st2{fill:#701C75;}
	.st3{fill:#FFFFFF;}
</style>
<g>
	<rect x="30.21" y="117.29" class="st0" width="1019.61" height="845.37"/>
	<path id="Trazado_12951" class="st1" d="M678.96,552.4H401.1c-24.2-0.07-43.79-19.67-43.86-43.86V230.67
		c0.07-24.19,19.67-43.79,43.86-43.86h277.87c24.19,0.07,43.79,19.67,43.86,43.86v277.87C722.76,532.73,703.16,552.33,678.96,552.4"
		/>
	<path id="Trazado_12952" class="st2" d="M384.11,519.17l148.75-310.12l163.07,310.12H384.11z"/>
	<path id="Trazado_12953" class="st3" d="M516.13,519.17h-21.78c-0.09-75.7-61.44-137.05-137.14-137.13v-21.79
		C444.94,360.35,516.03,431.44,516.13,519.17"/>
	<path id="Trazado_12954" class="st3" d="M640.44,519.17h-7.26c-0.17-152.34-123.63-275.8-275.97-275.97v-7.26
		C513.56,236.12,640.27,362.82,640.44,519.17"/>
	<path id="Trazado_12955" class="st3" d="M578.28,519.17h-14.52c-0.12-114.03-92.53-206.43-206.55-206.55V298.1
		C479.25,298.24,578.14,397.13,578.28,519.17"/>
	<path id="Trazado_12956" class="st3" d="M453.97,519.17h-29.05c-0.04-37.38-30.34-67.67-67.72-67.71v-29.06
		C410.62,422.46,453.92,465.75,453.97,519.17"/>
	<path id="Trazado_12957" class="st2" d="M664.27,858.5c9.6,6,20.63,9.33,31.94,9.64c17.62,0,25.88-8.81,25.88-19.82
		c0-11.56-6.88-17.9-24.78-24.51c-23.95-8.56-35.25-21.75-35.25-37.72c0-21.48,17.35-39.11,45.99-39.11
		c11.45-0.11,22.73,2.73,32.76,8.26l-6.06,17.62c-8.2-5.05-17.63-7.72-27.26-7.71c-14.32,0-22.3,8.26-22.3,18.18
		c0,11.01,7.99,15.96,25.33,22.57c23.13,8.81,34.97,20.38,34.97,40.2c0,23.42-18.17,39.93-49.84,39.93
		c-13.06,0.24-25.95-2.89-37.45-9.08L664.27,858.5z"/>
	<path id="Trazado_12958" class="st2" d="M803.87,821.05c0.55,32.77,21.48,46.26,45.71,46.26c12.65,0.4,25.24-1.95,36.9-6.88
		l4.13,17.34c-14.03,5.85-29.13,8.66-44.33,8.26c-41.03,0-65.54-26.98-65.54-67.19c0-40.2,23.68-71.87,62.5-71.87
		c43.51,0,55.07,38.29,55.07,62.79c-0.04,3.78-0.32,7.55-0.82,11.29L803.87,821.05z M874.91,803.7c0.27-15.42-6.33-39.38-33.6-39.38
		c-24.51,0-35.25,22.58-37.17,39.38H874.91z"/>
	<path id="Trazado_12959" class="st2" d="M1049.64,815.52c0,49.29-34.14,70.77-66.36,70.77c-36.07,0-63.88-26.43-63.88-68.56
		c0-44.6,29.18-70.77,66.08-70.77C1023.77,746.96,1049.64,774.77,1049.64,815.52 M943.9,816.9c0,29.19,16.8,51.22,40.48,51.22
		c23.13,0,40.48-21.75,40.48-51.77c0-22.58-11.29-51.21-39.93-51.21C956.29,765.14,943.9,791.57,943.9,816.9"/>
	<path id="Trazado_12960" class="st2" d="M405.73,764.34l-0.17-21.48h24.23V700.2h23.42v42.69h28.38v21.5h-28.33l-0.05,87.53
		c-0.06,2.22,0.17,4.45,0.69,6.61c0.39,1.56,1.32,2.92,2.62,3.86c1.61,1.04,3.46,1.66,5.37,1.8c2.97,0.31,5.96,0.45,8.95,0.41h10.74
		v20.65h-17.92c-5.21,0.07-10.42-0.34-15.56-1.24c-3.82-0.61-7.42-2.17-10.46-4.55c-2.84-2.48-4.9-5.73-5.92-9.36
		c-1.44-5.2-2.09-10.58-1.93-15.97V764.3"/>
	<path id="Trazado_12961" class="st2" d="M410.02,764.29c-8.15-0.2-16.28,1.11-23.96,3.86c-6.22,2.29-11.73,6.19-15.97,11.29
		c-4.21,5.3-7.22,11.44-8.81,18.02c-1.94,7.98-2.87,16.17-2.76,24.38v63.34H335.1V742.81h22.03v30.02h0.58
		c4.59-10.24,11.81-19.08,20.93-25.61c8.26-5.51,16.22-4.41,31.22-4.32L410.02,764.29z"/>
	<rect id="Rectángulo_404" x="163.46" y="689.26" class="st2" width="23.41" height="196.62"/>
	<path id="Trazado_12962" class="st2" d="M164,885.88c-5.13,0-9.63-0.06-16.79-0.06c-5.3,0.27-10.49-1.56-14.45-5.09
		c-4-4.58-5.95-10.61-5.37-16.67c-5.95,7.36-13.67,13.1-22.43,16.67c-8.81,3.45-18.2,5.18-27.66,5.09
		c-6.17,0.03-12.32-0.71-18.31-2.2c-5.4-1.29-10.5-3.63-15-6.88c-4.29-3.21-7.74-7.41-10.05-12.25c-2.63-5.74-3.9-12-3.73-18.31
		c-0.27-6.85,1.15-13.65,4.13-19.82c2.6-4.96,6.32-9.25,10.87-12.52c4.68-3.3,9.9-5.77,15.42-7.3c5.78-1.65,11.7-3.02,17.75-4.13
		c6.42-1.29,12.53-2.25,18.31-2.89c5.16-0.53,10.26-1.45,15.28-2.75c3.84-0.91,7.42-2.7,10.46-5.23c2.7-2.62,4.11-6.3,3.86-10.05
		c0.2-4.32-0.8-8.6-2.89-12.38c-1.8-3-4.36-5.47-7.43-7.16c-3.17-1.7-6.62-2.82-10.19-3.3c-3.69-0.55-7.42-0.82-11.15-0.83
		c-8.61-0.31-17.15,1.64-24.78,5.64c-6.6,3.77-10.18,10.89-10.73,21.34h-23.4c0.1-7.76,1.98-15.39,5.5-22.3
		c3.16-5.9,7.69-10.95,13.21-14.73c5.73-3.85,12.12-6.6,18.86-8.11c7.45-1.7,15.07-2.53,22.71-2.48c6.4,0,12.8,0.46,19.13,1.38
		c6.03,0.81,11.86,2.72,17.2,5.63c5.11,2.82,9.39,6.94,12.39,11.95c3.37,6.13,4.98,13.06,4.68,20.05v73.07
		c-0.13,4.05,0.19,8.11,0.96,12.09c0.64,2.56,2.8,3.85,6.47,3.85H164V885.88z M126.02,809.02c-3.46,2.43-7.4,4.07-11.56,4.82
		c-4.78,1.01-9.78,1.83-15.01,2.47c-5.23,0.64-10.51,1.37-15.83,2.2c-4.92,0.71-9.73,2.05-14.31,3.99c-4.05,1.7-7.6,4.4-10.32,7.85
		c-2.86,4.05-4.26,8.95-3.99,13.9c-0.11,3.41,0.7,6.78,2.34,9.77c1.49,2.59,3.57,4.81,6.05,6.47c2.64,1.72,5.58,2.94,8.67,3.58
		c3.44,0.75,6.94,1.12,10.46,1.1c6.74,0.16,13.46-0.9,19.82-3.15c4.95-1.79,9.52-4.5,13.46-8c3.27-2.91,5.89-6.48,7.71-10.46
		c1.55-3.32,2.39-6.93,2.48-10.6L126.02,809.02z"/>
	<path id="Trazado_12963" class="st2" d="M218.73,822.11c0.55,32.76,21.48,46.25,45.71,46.25c12.65,0.4,25.24-1.95,36.89-6.88
		l4.13,17.35c-14.03,5.85-29.13,8.66-44.33,8.26c-41.03,0-65.54-26.98-65.54-67.19s23.68-71.87,62.51-71.87
		c43.51,0,55.07,38.29,55.07,62.78c-0.04,3.78-0.32,7.55-0.82,11.29L218.73,822.11z M289.78,804.76
		c0.28-15.42-6.31-39.38-33.59-39.38c-24.51,0-35.25,22.58-37.17,39.38H289.78z"/>
	<path id="Trazado_12964" class="st2" d="M536.13,825.43l-19.27,58.38h-24.78l63.07-185.6h28.91l63.34,185.6h-25.61l-19.82-58.38
		H536.13z M596.98,806.71l-18.17-53.42c-4.13-12.12-6.88-23.13-9.64-33.87h-0.55c-2.75,11.01-5.78,22.3-9.36,33.59l-18.17,53.7
		H596.98z"/>
	<path id="Trazado_12965" class="st1" d="M52.09,922.33c-0.9-1.64-2.7-2.58-4.56-2.4c-1.09-0.04-2.15,0.31-3,0.98
		c-0.91,0.85-1.55,1.95-1.85,3.15c-0.52,1.87-0.84,3.79-0.95,5.73c-0.18,2.37-0.27,5.26-0.27,8.68c-0.03,2.95,0.1,5.9,0.37,8.84
		c0.14,1.79,0.53,3.55,1.15,5.23c0.35,1.03,1.04,1.91,1.96,2.5c0.84,0.44,1.79,0.66,2.74,0.64c0.82,0,1.63-0.15,2.39-0.45
		c0.82-0.36,1.5-0.97,1.93-1.75c0.64-1.15,1.07-2.41,1.27-3.71c0.36-2.08,0.52-4.19,0.48-6.31h9.72c0.01,2.49-0.19,4.97-0.6,7.42
		c-0.34,2.18-1.11,4.26-2.25,6.14c-1.13,1.78-2.75,3.21-4.65,4.12c-2.45,1.08-5.12,1.59-7.8,1.49c-3,0.14-5.99-0.47-8.7-1.76
		c-2.13-1.14-3.86-2.91-4.96-5.06c-1.22-2.46-1.99-5.12-2.25-7.86c-0.67-6.72-0.67-13.49,0-20.21c0.25-2.76,1-5.45,2.23-7.93
		c1.11-2.18,2.84-3.98,4.96-5.19c2.69-1.36,5.69-2,8.7-1.86c2.83-0.14,5.65,0.44,8.2,1.69c1.87,0.99,3.43,2.47,4.5,4.28
		c0.99,1.73,1.62,3.63,1.86,5.6c0.24,1.87,0.36,3.75,0.37,5.64h-9.73C53.5,927.37,53.07,924.75,52.09,922.33"/>
	<path id="Trazado_12966" class="st1" d="M91.34,957.66c-0.84,1.66-2.19,3.01-3.85,3.85c-1.69,0.79-3.54,1.18-5.41,1.15
		c-2.49,0.16-4.95-0.68-6.82-2.33c-1.81-2.17-2.67-4.98-2.4-7.79V925.6h9.31v25.04c-0.13,1.38,0.2,2.77,0.95,3.95
		c0.79,0.81,1.91,1.22,3.04,1.12c3.3,0,4.95-2,4.93-6.01v-24.1h9.31v36.33h-8.92v-4.25L91.34,957.66z"/>
	<path id="Trazado_12967" class="st1" d="M120.36,921.15h-9.32v-7.96h9.32L120.36,921.15z M120.36,961.91h-9.32V925.6h9.32
		L120.36,961.91z"/>
	<path id="Trazado_12968" class="st1" d="M149.52,958.06c-0.81,1.49-2.01,2.73-3.48,3.58c-1.48,0.72-3.11,1.06-4.76,1.01
		c-3.41,0.22-6.66-1.47-8.44-4.38c-2.14-4.52-3.07-9.52-2.7-14.51c-0.35-5.02,0.58-10.05,2.7-14.61c1.74-2.97,5-4.71,8.44-4.5
		c1.57-0.05,3.13,0.32,4.5,1.08c1.34,0.82,2.48,1.93,3.34,3.24h0.14v-15.23h9.31v48.2h-8.92v-3.85L149.52,958.06z M140.37,952.7
		c0.39,1.84,2.07,3.12,3.95,3c1.9,0.13,3.61-1.15,4.02-3c1.21-5.9,1.21-11.98,0-17.88c-0.41-1.86-2.12-3.13-4.02-3
		c-1.88-0.11-3.56,1.16-3.95,3C139.16,940.71,139.16,946.8,140.37,952.7"/>
	<path id="Trazado_12969" class="st1" d="M168.82,935.86c-0.06-1.82,0.28-3.63,1.01-5.3c0.62-1.35,1.56-2.53,2.73-3.44
		c1.2-0.91,2.59-1.55,4.05-1.89c1.62-0.39,3.29-0.59,4.96-0.58c2.28-0.07,4.56,0.21,6.76,0.82c1.5,0.41,2.87,1.2,3.98,2.29
		c0.95,0.99,1.62,2.21,1.93,3.54c0.35,1.48,0.52,2.99,0.5,4.5v19.1c-0.03,1.33,0.05,2.66,0.24,3.98c0.18,1.04,0.48,2.06,0.9,3.04
		h-8.91c-0.31-0.58-0.55-1.21-0.71-1.85c-0.16-0.66-0.3-1.3-0.45-1.93h-0.14c-0.79,1.62-2.11,2.91-3.74,3.68
		c-1.77,0.62-3.63,0.9-5.5,0.84c-1.42,0.04-2.83-0.25-4.11-0.84c-1.09-0.53-2.02-1.33-2.7-2.33c-0.69-1.02-1.19-2.15-1.49-3.34
		c-0.3-1.2-0.45-2.44-0.45-3.68c-0.03-1.49,0.16-2.98,0.55-4.42c0.32-1.16,0.88-2.25,1.65-3.18c0.79-0.91,1.75-1.66,2.84-2.19
		c1.33-0.65,2.72-1.17,4.15-1.55l5.27-1.41c1.09-0.2,2.1-0.71,2.9-1.48c0.59-0.8,0.88-1.78,0.81-2.77c0.07-1.17-0.28-2.33-0.98-3.27
		c-0.88-0.88-2.1-1.31-3.34-1.18c-1.22-0.09-2.41,0.38-3.23,1.28c-0.76,0.98-1.15,2.2-1.09,3.44v1.02h-8.37V935.86z M183.81,944.93
		c-0.64,0.26-1.29,0.48-1.96,0.64c-1.54,0.22-2.96,0.93-4.05,2.03c-0.86,1.09-1.29,2.46-1.22,3.85c-0.04,1.24,0.24,2.47,0.81,3.58
		c0.53,0.99,1.59,1.57,2.7,1.48c0.66,0,1.32-0.11,1.96-0.3c0.68-0.2,1.31-0.54,1.86-0.98c0.59-0.48,1.06-1.08,1.38-1.76
		c0.38-0.8,0.57-1.68,0.54-2.56v-7.15C185.21,944.24,184.53,944.64,183.81,944.93"/>
	<path id="Trazado_12970" class="st1" d="M214.38,925.6v4.25h0.14c0.86-1.67,2.2-3.04,3.85-3.95c1.67-0.85,3.53-1.28,5.41-1.25
		c2.52-0.16,5,0.72,6.85,2.43c1.8,2.22,2.66,5.05,2.4,7.9v26.95h-9.32v-25.04c0.14-1.38-0.2-2.77-0.95-3.95
		c-0.79-0.81-1.91-1.22-3.04-1.12c-3.29,0-4.93,2-4.93,6.01v24.1h-9.31v-36.31L214.38,925.6z"/>
	<path id="Trazado_12971" class="st1" d="M261.83,958.06c-0.81,1.49-2.01,2.73-3.48,3.58c-1.48,0.72-3.11,1.06-4.76,1.01
		c-3.41,0.22-6.66-1.47-8.44-4.38c-2.14-4.52-3.07-9.52-2.7-14.51c-0.35-5.02,0.58-10.05,2.7-14.61c1.74-2.97,5-4.71,8.44-4.5
		c1.57-0.05,3.13,0.32,4.5,1.08c1.34,0.82,2.48,1.93,3.34,3.24h0.14v-15.23h9.31v48.2h-8.92v-3.85L261.83,958.06z M252.68,952.7
		c0.39,1.84,2.07,3.12,3.95,3c1.9,0.13,3.61-1.15,4.02-3c1.21-5.9,1.21-11.98,0-17.88c-0.41-1.86-2.12-3.13-4.02-3
		c-1.88-0.11-3.56,1.16-3.95,3C251.47,940.71,251.47,946.8,252.68,952.7"/>
	<path id="Trazado_12972" class="st1" d="M280.73,935.52c0.39-2.14,1.22-4.17,2.43-5.97c1.12-1.59,2.65-2.85,4.42-3.65
		c2.12-0.89,4.41-1.31,6.72-1.25c2.37-0.11,4.74,0.27,6.95,1.12c1.79,0.74,3.32,1.99,4.39,3.6c1.16,1.83,1.94,3.87,2.3,6.01
		c0.48,2.76,0.71,5.57,0.68,8.37c0.03,2.76-0.22,5.52-0.74,8.23c-0.39,2.13-1.22,4.17-2.43,5.97c-1.1,1.58-2.64,2.81-4.42,3.55
		c-2.14,0.82-4.42,1.21-6.72,1.15c-2.36,0.11-4.73-0.24-6.95-1.05c-1.79-0.69-3.32-1.92-4.39-3.51c-1.17-1.82-1.95-3.87-2.29-6.01
		c-0.48-2.75-0.71-5.54-0.68-8.33C279.95,940.99,280.2,938.23,280.73,935.52 M289.43,948.88c0.06,1.37,0.27,2.73,0.64,4.05
		c0.27,1,0.79,1.91,1.52,2.64c0.74,0.66,1.71,0.99,2.7,0.94c1.84,0.04,3.46-1.19,3.91-2.97c1.44-6.44,1.44-13.13,0-19.57
		c-0.45-1.78-2.08-3.01-3.91-2.97c-0.99-0.05-1.96,0.29-2.7,0.95c-0.73,0.73-1.26,1.63-1.52,2.63c-0.37,1.32-0.58,2.68-0.64,4.05
		c-0.09,1.58-0.13,3.28-0.13,5.13c0,1.85,0.04,3.55,0.13,5.13"/>
	<path id="Trazado_12973" class="st1" d="M346.94,925.6v4.25h0.14c0.86-1.67,2.2-3.04,3.85-3.95c1.67-0.85,3.53-1.28,5.41-1.25
		c2.52-0.16,5,0.72,6.85,2.43c1.8,2.22,2.66,5.05,2.4,7.9v26.95h-9.32v-25.04c0.14-1.38-0.2-2.77-0.95-3.95
		c-0.79-0.81-1.91-1.22-3.04-1.12c-3.28,0-4.93,2-4.93,6.01v24.1h-9.31v-36.31L346.94,925.6z"/>
	<path id="Trazado_12974" class="st1" d="M394.39,957.66c-0.84,1.66-2.19,3.01-3.85,3.85c-1.69,0.79-3.54,1.18-5.41,1.15
		c-2.5,0.17-4.97-0.67-6.85-2.33c-1.81-2.17-2.67-4.98-2.4-7.79V925.6h9.3v25.04c-0.13,1.38,0.2,2.77,0.95,3.95
		c0.79,0.81,1.91,1.22,3.04,1.12c3.29,0,4.93-2,4.93-6.01v-24.1h9.31v36.33h-8.89v-4.25L394.39,957.66z"/>
	<path id="Trazado_12975" class="st1" d="M421.73,948.07c0,1.06,0.07,2.11,0.23,3.15c0.13,0.93,0.39,1.84,0.77,2.7
		c0.32,0.73,0.81,1.38,1.42,1.89c0.62,0.48,1.38,0.73,2.16,0.71c1.37,0.1,2.68-0.54,3.44-1.68c0.86-1.58,1.36-3.33,1.48-5.13h8.37
		c0.08,3.52-1.12,6.95-3.37,9.65c-2.66,2.42-6.21,3.62-9.79,3.31c-2.74,0.15-5.46-0.44-7.9-1.69c-1.81-1.04-3.26-2.59-4.18-4.46
		c-0.93-1.95-1.49-4.05-1.66-6.21c-0.2-2.29-0.3-4.59-0.3-6.89c-0.01-2.35,0.16-4.69,0.51-7.01c0.28-2.11,0.96-4.16,2-6.02
		c1.03-1.77,2.54-3.22,4.35-4.18c2.35-1.14,4.95-1.67,7.56-1.55c2.29-0.09,4.57,0.37,6.65,1.32c1.68,0.83,3.1,2.12,4.09,3.71
		c1.05,1.78,1.74,3.76,2.02,5.81c0.38,2.51,0.56,5.05,0.54,7.59v2.09H421.7L421.73,948.07z M430.97,935.96
		c-0.1-0.93-0.34-1.84-0.71-2.7c-0.29-0.69-0.79-1.28-1.41-1.68c-0.71-0.41-1.51-0.61-2.33-0.58c-0.82-0.03-1.64,0.19-2.33,0.64
		c-0.62,0.43-1.12,1.01-1.46,1.69c-0.37,0.73-0.63,1.52-0.77,2.33c-0.16,0.85-0.23,1.7-0.23,2.56v1.41h9.51
		C431.19,938.24,431.1,937.01,430.97,935.96"/>
	<path id="Trazado_12976" class="st1" d="M455.94,951.25c-0.07,1.38,0.38,2.74,1.25,3.82c0.92,1,2.25,1.54,3.6,1.45
		c1.24,0.06,2.46-0.32,3.44-1.08c0.9-0.83,1.37-2.02,1.28-3.24c0.07-0.99-0.3-1.97-1.01-2.67c-0.7-0.62-1.5-1.11-2.36-1.45
		l-6.55-2.36c-2.26-0.69-4.27-2.02-5.81-3.82c-1.36-1.81-2.05-4.04-1.96-6.31c-0.01-1.44,0.24-2.87,0.74-4.22
		c0.5-1.33,1.31-2.52,2.36-3.48c1.21-1.06,2.62-1.87,4.15-2.36c1.97-0.64,4.04-0.94,6.11-0.9c3.35-0.27,6.68,0.69,9.38,2.7
		c2.1,1.96,3.21,4.76,3.04,7.63v1.49h-8.36c0.11-1.44-0.2-2.88-0.9-4.15c-0.77-0.96-1.98-1.46-3.2-1.32
		c-1.1-0.02-2.18,0.32-3.07,0.98c-0.9,0.7-1.4,1.8-1.32,2.93c-0.01,0.88,0.29,1.74,0.85,2.43c0.87,0.9,1.99,1.52,3.21,1.8l5.6,1.89
		c2.4,0.66,4.56,2,6.21,3.88c1.3,1.91,1.93,4.2,1.8,6.51c0.04,1.73-0.3,3.45-1.02,5.03c-0.65,1.38-1.6,2.59-2.8,3.54
		c-1.25,0.98-2.7,1.67-4.25,2.03c-1.78,0.42-3.6,0.62-5.43,0.6c-2.2,0.05-4.39-0.2-6.52-0.74c-1.53-0.39-2.95-1.15-4.11-2.23
		c-1.01-0.99-1.75-2.24-2.13-3.6c-0.42-1.55-0.63-3.15-0.61-4.76v-1.28h8.37L455.94,951.25z"/>
	<path id="Trazado_12977" class="st1" d="M494.54,915.2v10.39h5.41v6.34h-5.41v19.63c-0.09,1.06,0.14,2.13,0.64,3.07
		c0.7,0.71,1.69,1.04,2.67,0.9c0.36,0,0.72,0,1.08-0.04c0.36-0.04,0.7-0.05,1.01-0.1v6.53c-1.04,0-2.04,0.04-3,0.1
		c-0.96,0.06-1.99,0.1-3.07,0.1c-1.48,0.03-2.97-0.09-4.42-0.37c-1.02-0.18-1.95-0.7-2.63-1.49c-0.65-0.86-1.08-1.87-1.25-2.93
		c-0.25-1.52-0.36-3.06-0.34-4.59v-20.79h-4.73v-6.34h4.73v-10.39L494.54,915.2z"/>
	<path id="Trazado_12978" class="st1" d="M516.21,925.6v4.86h0.14c0.85-1.63,2.02-3.07,3.44-4.22c1.41-1.08,3.15-1.64,4.92-1.59
		c0.27,0,0.55,0,0.85,0.04c0.29,0.04,0.58,0.06,0.84,0.1v8.91c-0.49-0.05-0.97-0.08-1.45-0.11c-0.48-0.03-0.95-0.03-1.45-0.03
		c-0.82,0-1.64,0.12-2.43,0.34c-0.81,0.22-1.57,0.6-2.23,1.11c-0.69,0.54-1.25,1.24-1.62,2.03c-0.43,0.97-0.64,2.02-0.6,3.07v21.82
		h-9.31v-36.31L516.21,925.6z"/>
	<path id="Trazado_12979" class="st1" d="M533.42,935.52c0.39-2.14,1.22-4.17,2.43-5.97c1.12-1.59,2.65-2.85,4.42-3.65
		c2.12-0.89,4.41-1.31,6.72-1.25c2.37-0.11,4.74,0.27,6.95,1.12c1.79,0.74,3.32,1.99,4.39,3.6c1.16,1.83,1.94,3.87,2.3,6.01
		c0.48,2.76,0.71,5.57,0.68,8.37c0.03,2.76-0.22,5.52-0.74,8.23c-0.39,2.13-1.22,4.17-2.43,5.97c-1.1,1.58-2.64,2.81-4.42,3.55
		c-2.14,0.82-4.42,1.21-6.72,1.15c-2.36,0.11-4.73-0.24-6.95-1.05c-1.79-0.69-3.32-1.92-4.39-3.51c-1.17-1.82-1.95-3.87-2.29-6.01
		c-0.48-2.75-0.71-5.54-0.68-8.33C532.64,940.99,532.89,938.23,533.42,935.52 M542.12,948.88c0.06,1.37,0.27,2.73,0.64,4.05
		c0.27,1,0.79,1.91,1.52,2.64c0.74,0.66,1.71,0.99,2.7,0.94c1.84,0.04,3.46-1.19,3.91-2.97c1.44-6.44,1.44-13.13,0-19.57
		c-0.45-1.78-2.08-3.01-3.91-2.97c-0.99-0.05-1.96,0.29-2.7,0.95c-0.73,0.73-1.26,1.63-1.52,2.63c-0.37,1.32-0.58,2.68-0.64,4.05
		c-0.09,1.58-0.13,3.28-0.13,5.13c0,1.85,0.04,3.55,0.13,5.13"/>
	<path id="Trazado_12980" class="st1" d="M599.61,925.6v3.71h0.14c0.99-1.51,2.35-2.74,3.95-3.58c1.64-0.76,3.43-1.13,5.23-1.08
		c1.92-0.06,3.81,0.45,5.43,1.49c1.48,1.02,2.53,2.56,2.93,4.32h0.14c0.62-1.81,1.85-3.35,3.48-4.35c1.73-1,3.7-1.51,5.7-1.46
		c2.6-0.21,5.15,0.83,6.85,2.81c1.61,2.37,2.38,5.21,2.19,8.06v26.41h-9.31v-25.38c0.08-1.23-0.22-2.45-0.85-3.51
		c-0.66-0.86-1.72-1.32-2.8-1.22c-1.34-0.06-2.64,0.49-3.54,1.49c-0.99,1.37-1.46,3.05-1.32,4.73v23.88h-9.31v-25.38
		c0.08-1.23-0.21-2.45-0.84-3.51c-0.66-0.86-1.72-1.32-2.8-1.22c-1.34-0.06-2.64,0.49-3.55,1.49c-0.99,1.37-1.46,3.05-1.32,4.73
		v23.88h-9.31v-36.31L599.61,925.6z"/>
	<path id="Trazado_12981" class="st1" d="M653.97,948.07c0,1.06,0.07,2.11,0.23,3.15c0.13,0.93,0.39,1.84,0.77,2.7
		c0.32,0.73,0.81,1.38,1.42,1.89c0.62,0.48,1.38,0.73,2.16,0.71c1.37,0.1,2.68-0.54,3.44-1.68c0.86-1.58,1.36-3.33,1.48-5.13h8.37
		c0.08,3.52-1.12,6.95-3.37,9.65c-2.66,2.42-6.21,3.62-9.79,3.31c-2.74,0.15-5.46-0.44-7.9-1.69c-1.81-1.04-3.26-2.59-4.18-4.46
		c-0.93-1.95-1.49-4.05-1.66-6.21c-0.2-2.29-0.3-4.59-0.3-6.89c-0.01-2.35,0.17-4.69,0.51-7.01c0.29-2.11,0.97-4.15,2.02-6.01
		c1.03-1.77,2.54-3.22,4.35-4.18c2.35-1.14,4.95-1.67,7.56-1.55c2.29-0.09,4.57,0.37,6.65,1.32c1.68,0.83,3.1,2.12,4.09,3.71
		c1.06,1.78,1.74,3.76,2.02,5.81c0.38,2.51,0.56,5.05,0.54,7.59v2.09h-18.42L653.97,948.07z M663.21,935.96
		c-0.1-0.93-0.34-1.84-0.71-2.7c-0.29-0.69-0.79-1.28-1.41-1.68c-0.71-0.41-1.51-0.61-2.33-0.58c-0.82-0.03-1.64,0.19-2.33,0.64
		c-0.62,0.43-1.12,1.01-1.46,1.69c-0.37,0.73-0.63,1.52-0.77,2.33c-0.16,0.85-0.23,1.7-0.23,2.56v1.41h9.51
		C663.44,938.24,663.35,937.01,663.21,935.96"/>
	<path id="Trazado_12982" class="st1" d="M699.86,958.06c-0.81,1.49-2.01,2.73-3.48,3.58c-1.48,0.72-3.11,1.06-4.76,1.01
		c-3.41,0.22-6.66-1.47-8.44-4.38c-2.14-4.52-3.07-9.52-2.7-14.51c-0.35-5.02,0.58-10.05,2.7-14.61c1.74-2.97,5-4.71,8.44-4.5
		c1.57-0.05,3.13,0.32,4.5,1.08c1.34,0.82,2.48,1.93,3.34,3.24h0.14v-15.23h9.31v48.2h-8.91v-3.85L699.86,958.06z M690.72,952.7
		c0.39,1.84,2.07,3.12,3.95,3c1.9,0.13,3.61-1.15,4.02-3c1.21-5.9,1.21-11.98,0-17.88c-0.41-1.86-2.12-3.13-4.02-3
		c-1.88-0.11-3.56,1.16-3.95,3C689.5,940.71,689.5,946.8,690.72,952.7"/>
	<path id="Trazado_12983" class="st1" d="M728.9,921.15h-9.32v-7.96h9.32V921.15z M728.9,961.91h-9.32V925.6h9.32V961.91z"/>
	<path id="Trazado_12984" class="st1" d="M739.08,935.52c0.39-2.14,1.22-4.17,2.43-5.97c1.12-1.59,2.65-2.85,4.42-3.65
		c2.12-0.89,4.41-1.31,6.71-1.25c2.37-0.11,4.74,0.27,6.95,1.12c1.79,0.74,3.32,1.99,4.39,3.6c1.17,1.83,1.95,3.87,2.3,6.01
		c0.48,2.76,0.71,5.56,0.68,8.37c0.03,2.76-0.22,5.52-0.75,8.23c-0.39,2.13-1.22,4.17-2.43,5.97c-1.1,1.58-2.64,2.81-4.42,3.55
		c-2.14,0.82-4.42,1.21-6.72,1.15c-2.36,0.11-4.73-0.24-6.95-1.05c-1.79-0.69-3.32-1.92-4.38-3.51c-1.17-1.82-1.95-3.87-2.3-6.01
		c-0.48-2.75-0.7-5.54-0.67-8.33C738.3,940.99,738.55,938.23,739.08,935.52 M747.78,948.88c0.05,1.37,0.27,2.73,0.64,4.05
		c0.26,1,0.79,1.91,1.52,2.64c0.74,0.66,1.71,0.99,2.7,0.94c1.84,0.04,3.46-1.19,3.92-2.97c1.44-6.45,1.44-13.13,0-19.57
		c-0.46-1.78-2.08-3.01-3.92-2.97c-0.99-0.05-1.96,0.29-2.7,0.95c-0.73,0.73-1.26,1.63-1.52,2.63c-0.37,1.32-0.59,2.68-0.64,4.05
		c-0.09,1.58-0.14,3.28-0.14,5.13c0,1.85,0.04,3.55,0.14,5.13"/>
	<path id="Trazado_12985" class="st1" d="M776,935.86c-0.06-1.82,0.29-3.63,1.01-5.3c0.62-1.35,1.56-2.53,2.73-3.44
		c1.2-0.91,2.59-1.55,4.05-1.89c1.62-0.39,3.29-0.59,4.96-0.58c2.28-0.07,4.56,0.21,6.76,0.82c1.5,0.41,2.87,1.2,3.98,2.29
		c0.95,0.99,1.61,2.21,1.93,3.54c0.35,1.48,0.52,2.99,0.5,4.5v19.1c-0.03,1.33,0.05,2.66,0.24,3.98c0.18,1.04,0.49,2.06,0.9,3.04
		h-8.91c-0.31-0.58-0.55-1.21-0.71-1.85c-0.16-0.66-0.3-1.3-0.45-1.93h-0.13c-0.79,1.62-2.11,2.91-3.74,3.68
		c-1.77,0.62-3.63,0.9-5.5,0.84c-1.42,0.04-2.83-0.25-4.12-0.84c-1.09-0.53-2.02-1.33-2.7-2.33c-0.69-1.02-1.19-2.15-1.49-3.34
		c-0.3-1.2-0.45-2.44-0.45-3.68c-0.03-1.49,0.15-2.98,0.54-4.42c0.32-1.16,0.88-2.25,1.65-3.18c0.79-0.91,1.75-1.66,2.83-2.19
		c1.33-0.65,2.72-1.17,4.15-1.55l5.26-1.41c1.09-0.2,2.1-0.71,2.91-1.48c0.59-0.8,0.88-1.78,0.81-2.77
		c0.07-1.17-0.28-2.33-0.98-3.27c-0.88-0.88-2.1-1.31-3.34-1.18c-1.22-0.09-2.41,0.38-3.24,1.28c-0.76,0.98-1.14,2.2-1.08,3.44v1.02
		h-8.37L776,935.86z M790.98,944.93c-0.63,0.26-1.29,0.48-1.96,0.64c-1.54,0.22-2.96,0.93-4.05,2.03c-0.86,1.09-1.29,2.46-1.22,3.85
		c-0.04,1.24,0.24,2.47,0.81,3.58c0.53,0.98,1.59,1.57,2.7,1.48c0.66,0,1.32-0.11,1.96-0.3c0.67-0.2,1.3-0.53,1.85-0.98
		c0.59-0.48,1.06-1.08,1.39-1.76c0.38-0.8,0.56-1.68,0.54-2.56v-7.15C792.39,944.24,791.71,944.64,790.98,944.93"/>
	<path id="Trazado_12986" class="st1" d="M821.55,925.6v3.71h0.14c0.99-1.51,2.35-2.74,3.95-3.58c1.64-0.76,3.43-1.13,5.23-1.08
		c1.92-0.06,3.81,0.45,5.43,1.49c1.48,1.02,2.53,2.56,2.93,4.32h0.14c0.62-1.81,1.85-3.35,3.48-4.35c1.73-1,3.7-1.51,5.7-1.46
		c2.6-0.21,5.15,0.83,6.85,2.81c1.61,2.37,2.38,5.21,2.19,8.06v26.41h-9.32v-25.38c0.08-1.23-0.22-2.45-0.85-3.51
		c-0.66-0.86-1.72-1.32-2.8-1.22c-1.34-0.06-2.64,0.49-3.54,1.49c-0.99,1.37-1.46,3.05-1.32,4.73v23.88h-9.31v-25.38
		c0.08-1.23-0.21-2.45-0.84-3.51c-0.66-0.86-1.72-1.32-2.8-1.22c-1.34-0.06-2.64,0.49-3.55,1.49c-0.99,1.37-1.46,3.05-1.32,4.73
		v23.88h-9.31v-36.31L821.55,925.6z"/>
	<path id="Trazado_12987" class="st1" d="M877.24,913.73v15.25h0.14c0.86-1.31,2-2.42,3.34-3.24c1.38-0.76,2.93-1.13,4.5-1.08
		c3.44-0.21,6.7,1.53,8.43,4.5c2.13,4.56,3.06,9.59,2.7,14.61c0.36,4.99-0.57,9.99-2.7,14.51c-1.78,2.91-5.03,4.6-8.43,4.38
		c-1.65,0.05-3.28-0.29-4.76-1.01c-1.46-0.86-2.66-2.09-3.47-3.58h-0.14v3.85h-8.91v-48.21H877.24z M878.14,952.7
		c0.62,2.2,2.91,3.48,5.11,2.85c1.38-0.39,2.46-1.47,2.85-2.85c1.21-5.9,1.21-11.98,0-17.88c-0.62-2.2-2.91-3.48-5.11-2.85
		c-1.38,0.39-2.46,1.47-2.85,2.85C876.92,940.72,876.92,946.8,878.14,952.7"/>
	<path id="Trazado_12988" class="st1" d="M915.44,921.15h-9.32v-7.96h9.32V921.15z M915.44,961.91h-9.32V925.6h9.32V961.91z"/>
	<path id="Trazado_12989" class="st1" d="M934.07,948.07c0,1.06,0.07,2.11,0.23,3.15c0.13,0.93,0.39,1.84,0.77,2.7
		c0.32,0.73,0.81,1.38,1.42,1.89c0.62,0.48,1.38,0.73,2.16,0.71c1.37,0.1,2.68-0.54,3.44-1.68c0.86-1.58,1.36-3.33,1.48-5.13h8.37
		c0.08,3.52-1.12,6.95-3.37,9.65c-2.66,2.42-6.21,3.62-9.79,3.31c-2.74,0.15-5.46-0.44-7.9-1.69c-1.81-1.04-3.26-2.59-4.18-4.46
		c-0.93-1.95-1.49-4.05-1.66-6.21c-0.2-2.29-0.3-4.59-0.3-6.89c-0.01-2.35,0.17-4.69,0.51-7.01c0.29-2.11,0.97-4.15,2.02-6.01
		c1.03-1.77,2.54-3.22,4.35-4.18c2.35-1.14,4.95-1.67,7.56-1.55c2.29-0.09,4.57,0.37,6.65,1.32c1.68,0.83,3.1,2.12,4.09,3.71
		c1.06,1.78,1.74,3.76,2.02,5.81c0.38,2.51,0.56,5.05,0.54,7.59v2.09h-18.42L934.07,948.07z M943.31,935.96
		c-0.1-0.93-0.34-1.84-0.71-2.7c-0.29-0.69-0.79-1.28-1.41-1.68c-0.71-0.41-1.51-0.61-2.33-0.58c-0.82-0.03-1.64,0.19-2.33,0.64
		c-0.62,0.43-1.12,1.01-1.46,1.69c-0.37,0.73-0.63,1.52-0.77,2.33c-0.16,0.85-0.23,1.7-0.23,2.56v1.41h9.51
		C943.54,938.24,943.45,937.01,943.31,935.96"/>
	<path id="Trazado_12990" class="st1" d="M970.38,925.6v4.25h0.14c0.86-1.67,2.2-3.04,3.85-3.95c1.67-0.85,3.53-1.28,5.41-1.25
		c2.52-0.16,5,0.72,6.85,2.43c1.8,2.22,2.66,5.05,2.4,7.9v26.95h-9.31v-25.04c0.14-1.38-0.2-2.77-0.95-3.95
		c-0.79-0.81-1.91-1.22-3.04-1.12c-3.29,0-4.93,2-4.93,6.01v24.1h-9.31v-36.31L970.38,925.6z"/>
	<path id="Trazado_12991" class="st1" d="M1010.68,915.2v10.39h5.41v6.34h-5.41v19.63c-0.09,1.06,0.14,2.13,0.64,3.07
		c0.7,0.71,1.69,1.04,2.67,0.9c0.36,0,0.72,0,1.07-0.04c0.36-0.04,0.7-0.05,1.02-0.1v6.53c-1.04,0-2.04,0.04-3,0.1
		c-0.96,0.06-1.99,0.1-3.07,0.1c-1.48,0.03-2.97-0.09-4.42-0.37c-1.02-0.18-1.95-0.7-2.63-1.49c-0.66-0.86-1.08-1.87-1.25-2.93
		c-0.25-1.52-0.36-3.06-0.34-4.59v-20.79h-4.73v-6.34h4.73v-10.39L1010.68,915.2z"/>
	<path id="Trazado_12992" class="st1" d="M1031.39,948.07c0,1.06,0.07,2.11,0.23,3.15c0.13,0.93,0.39,1.84,0.77,2.7
		c0.32,0.73,0.81,1.38,1.42,1.89c0.62,0.48,1.38,0.73,2.16,0.71c1.37,0.1,2.68-0.54,3.44-1.68c0.86-1.58,1.36-3.33,1.48-5.13h8.37
		c0.08,3.52-1.12,6.95-3.37,9.65c-2.66,2.42-6.21,3.62-9.79,3.31c-2.74,0.15-5.46-0.44-7.9-1.69c-1.81-1.04-3.26-2.59-4.18-4.46
		c-0.93-1.95-1.49-4.05-1.66-6.21c-0.2-2.29-0.3-4.59-0.3-6.89c-0.01-2.35,0.17-4.69,0.51-7.01c0.29-2.11,0.97-4.15,2.02-6.01
		c1.03-1.77,2.54-3.22,4.35-4.18c2.35-1.14,4.95-1.67,7.56-1.55c2.29-0.09,4.57,0.37,6.65,1.32c1.68,0.83,3.1,2.12,4.09,3.71
		c1.06,1.78,1.74,3.76,2.02,5.81c0.38,2.51,0.56,5.05,0.54,7.59v2.09h-18.42L1031.39,948.07z M1040.64,935.96
		c-0.1-0.93-0.34-1.84-0.71-2.7c-0.29-0.69-0.79-1.28-1.41-1.68c-0.71-0.41-1.51-0.61-2.33-0.58c-0.82-0.03-1.64,0.19-2.33,0.64
		c-0.62,0.43-1.12,1.01-1.46,1.69c-0.37,0.73-0.63,1.52-0.77,2.33c-0.16,0.85-0.23,1.7-0.23,2.56v1.41h9.51
		C1040.86,938.24,1040.77,937.01,1040.64,935.96"/>
</g>
</svg>
