<?xml version="1.0" encoding="utf-8"?>
<svg version="1.1" id="Capa_1" x="0px" y="0px" style="enable-background:new 0 0 1080 1080;" viewBox="0 0 1658 595" xmlns="http://www.w3.org/2000/svg">
  <style type="text/css">.st0 { fill: none; }
.st1 { }
.st2 { }
.st3 { fill: rgb(255, 255, 255); }</style>
  <g transform="matrix(1, 0, 0, 1.020982, 5.702409, -39.906185)" style="">
    <rect x="30.21" y="117.29" class="st0" width="1019.61" height="845.37"/>
    <path id="Trazado_12951" class="st1" d="M 421.785 511.297 L 143.925 511.297 C 119.725 511.227 100.135 491.627 100.065 467.437 L 100.065 189.567 C 100.135 165.377 119.735 145.777 143.925 145.707 L 421.795 145.707 C 445.985 145.777 465.585 165.377 465.655 189.567 L 465.655 467.437 C 465.585 491.627 445.985 511.227 421.785 511.297" transform="matrix(0, 0.979449, -1.020982, 0, 618.254637, 51.455006)" style="fill: none; stroke-width: 9.89618px; stroke: rgb(255, 255, 255);"/>
    <path id="Trazado_12952" class="st2" d="M 126.935 478.067 L 257.091 206.712 L 275.685 167.947 L 438.755 478.067 L 126.935 478.067 Z" style="fill: none; stroke: rgb(255, 255, 255); stroke-width: 9.89618px;"/>
    <path id="Trazado_12953" class="st3" d="M 258.955 478.067 L 237.175 478.067 C 237.085 402.367 175.735 341.017 100.035 340.937 L 100.035 319.147 C 187.765 319.247 258.855 390.337 258.955 478.067" style="stroke: rgb(0, 0, 0);"/>
    <path id="Trazado_12954" class="st3" d="M 383.265 478.067 L 376.005 478.067 C 375.835 325.727 252.375 202.267 100.035 202.097 L 100.035 194.837 C 256.385 195.017 383.095 321.717 383.265 478.067" style="stroke: rgb(0, 0, 0);"/>
    <path id="Trazado_12955" class="st3" d="M 321.105 478.067 L 306.585 478.067 C 306.465 364.037 214.055 271.637 100.035 271.517 L 100.035 256.997 C 222.075 257.137 320.965 356.027 321.105 478.067" style="stroke: rgb(0, 0, 0);"/>
    <path id="Trazado_12956" class="st3" d="M 196.795 478.067 L 167.745 478.067 C 167.705 440.687 137.405 410.397 100.025 410.357 L 100.025 381.297 C 153.445 381.357 196.745 424.647 196.795 478.067" style="stroke: rgb(0, 0, 0);"/>
    <path id="Trazado_12957" class="st2" d="M 1150.087 360.427 C 1159.687 366.427 1170.717 369.757 1182.027 370.067 C 1199.647 370.067 1207.907 361.257 1207.907 350.247 C 1207.907 338.687 1201.027 332.347 1183.127 325.737 C 1159.177 317.177 1147.877 303.987 1147.877 288.017 C 1147.877 266.537 1165.227 248.907 1193.867 248.907 C 1205.317 248.797 1216.597 251.637 1226.627 257.167 L 1220.567 274.787 C 1212.367 269.737 1202.937 267.067 1193.307 267.077 C 1178.987 267.077 1171.007 275.337 1171.007 285.257 C 1171.007 296.267 1178.997 301.217 1196.337 307.827 C 1219.467 316.637 1231.307 328.207 1231.307 348.027 C 1231.307 371.447 1213.137 387.957 1181.467 387.957 C 1168.407 388.197 1155.517 385.067 1144.017 378.877 L 1150.087 360.427 Z" style="stroke: rgb(0, 0, 0); fill: rgb(255, 255, 255);"/>
    <path id="Trazado_12958" class="st2" d="M 1289.687 322.977 C 1290.237 355.747 1311.167 369.237 1335.397 369.237 C 1348.047 369.637 1360.637 367.287 1372.297 362.357 L 1376.427 379.697 C 1362.397 385.547 1347.297 388.357 1332.097 387.957 C 1291.067 387.957 1266.557 360.977 1266.557 320.767 C 1266.557 280.567 1290.237 248.897 1329.057 248.897 C 1372.567 248.897 1384.127 287.187 1384.127 311.687 C 1384.087 315.467 1383.807 319.237 1383.307 322.977 L 1289.687 322.977 Z M 1360.727 305.627 C 1360.997 290.207 1354.397 266.247 1327.127 266.247 C 1302.617 266.247 1291.877 288.827 1289.957 305.627 L 1360.727 305.627 Z" style="stroke: rgb(0, 0, 0); fill: rgb(255, 255, 255);"/>
    <path id="Trazado_12959" class="st2" d="M 1535.457 317.447 C 1535.457 366.737 1501.317 388.217 1469.097 388.217 C 1433.027 388.217 1405.217 361.787 1405.217 319.657 C 1405.217 275.057 1434.397 248.887 1471.297 248.887 C 1509.587 248.887 1535.457 276.697 1535.457 317.447 M 1429.717 318.827 C 1429.717 348.017 1446.517 370.047 1470.197 370.047 C 1493.327 370.047 1510.677 348.297 1510.677 318.277 C 1510.677 295.697 1499.387 267.067 1470.747 267.067 C 1442.107 267.067 1429.717 293.497 1429.717 318.827" style="stroke: rgb(0, 0, 0); fill: rgb(255, 255, 255);"/>
    <path id="Trazado_12960" class="st2" d="M 891.547 266.267 L 891.377 244.787 L 915.607 244.787 L 915.607 202.127 L 939.027 202.127 L 939.027 244.817 L 967.407 244.817 L 967.407 266.317 L 939.077 266.317 L 939.027 353.847 C 938.967 356.067 939.197 358.297 939.717 360.457 C 940.107 362.017 941.037 363.377 942.337 364.317 C 943.947 365.357 945.797 365.977 947.707 366.117 C 950.677 366.427 953.667 366.567 956.657 366.527 L 967.397 366.527 L 967.397 387.177 L 949.477 387.177 C 944.267 387.247 939.057 386.837 933.917 385.937 C 930.097 385.327 926.497 383.767 923.457 381.387 C 920.617 378.907 918.557 375.657 917.537 372.027 C 916.097 366.827 915.447 361.447 915.607 356.057 L 915.607 266.227" style="stroke: rgb(0, 0, 0); fill: rgb(255, 255, 255);"/>
    <path id="Trazado_12961" class="st2" d="M 895.837 266.217 C 887.687 266.017 879.557 267.327 871.877 270.077 C 865.657 272.367 860.147 276.267 855.907 281.367 C 851.697 286.667 848.687 292.807 847.097 299.387 C 845.157 307.367 844.227 315.557 844.337 323.767 L 844.337 387.107 L 820.917 387.107 L 820.917 244.737 L 842.947 244.737 L 842.947 274.757 L 843.527 274.757 C 848.117 264.517 855.337 255.677 864.457 249.147 C 872.717 243.637 880.677 244.737 895.677 244.827 L 895.837 266.217 Z" style="stroke: rgb(0, 0, 0); fill: rgb(255, 255, 255);"/>
    <rect id="Rectángulo_404" x="649.277" y="191.187" class="st2" width="23.41" height="196.62" style="stroke: rgb(0, 0, 0); fill: rgb(255, 255, 255);"/>
    <path id="Trazado_12962" class="st2" d="M 649.817 387.807 C 644.687 387.807 640.187 387.747 633.027 387.747 C 627.727 388.017 622.537 386.187 618.577 382.657 C 614.577 378.077 612.627 372.047 613.207 365.987 C 607.257 373.347 599.537 379.087 590.777 382.657 C 581.967 386.107 572.577 387.837 563.117 387.747 C 556.947 387.777 550.797 387.037 544.807 385.547 C 539.407 384.257 534.307 381.917 529.807 378.667 C 525.517 375.457 522.067 371.257 519.757 366.417 C 517.127 360.677 515.857 354.417 516.027 348.107 C 515.757 341.257 517.177 334.457 520.157 328.287 C 522.757 323.327 526.477 319.037 531.027 315.767 C 535.707 312.467 540.927 309.997 546.447 308.467 C 552.227 306.817 558.147 305.447 564.197 304.337 C 570.617 303.047 576.727 302.087 582.507 301.447 C 587.667 300.917 592.767 299.997 597.787 298.697 C 601.627 297.787 605.207 295.997 608.247 293.467 C 610.947 290.847 612.357 287.167 612.107 283.417 C 612.307 279.097 611.307 274.817 609.217 271.037 C 607.417 268.037 604.857 265.567 601.787 263.877 C 598.617 262.177 595.167 261.057 591.597 260.577 C 587.907 260.027 584.177 259.757 580.447 259.747 C 571.837 259.437 563.297 261.387 555.667 265.387 C 549.067 269.157 545.487 276.277 544.937 286.727 L 521.537 286.727 C 521.637 278.967 523.517 271.337 527.037 264.427 C 530.197 258.527 534.727 253.477 540.247 249.697 C 545.977 245.847 552.367 243.097 559.107 241.587 C 566.557 239.887 574.177 239.057 581.817 239.107 C 588.217 239.107 594.617 239.567 600.947 240.487 C 606.977 241.297 612.807 243.207 618.147 246.117 C 623.257 248.937 627.537 253.057 630.537 258.067 C 633.907 264.197 635.517 271.127 635.217 278.117 L 635.217 351.187 C 635.087 355.237 635.407 359.297 636.177 363.277 C 636.817 365.837 638.977 367.127 642.647 367.127 L 649.817 367.127 L 649.817 387.807 Z M 611.837 310.947 C 608.377 313.377 604.437 315.017 600.277 315.767 C 595.497 316.777 590.497 317.597 585.267 318.237 C 580.037 318.877 574.757 319.607 569.437 320.437 C 564.517 321.147 559.707 322.487 555.127 324.427 C 551.077 326.127 547.527 328.827 544.807 332.277 C 541.947 336.327 540.547 341.227 540.817 346.177 C 540.707 349.587 541.517 352.957 543.157 355.947 C 544.647 358.537 546.727 360.757 549.207 362.417 C 551.847 364.137 554.787 365.357 557.877 365.997 C 561.317 366.747 564.817 367.117 568.337 367.097 C 575.077 367.257 581.797 366.197 588.157 363.947 C 593.107 362.157 597.677 359.447 601.617 355.947 C 604.887 353.037 607.507 349.467 609.327 345.487 C 610.877 342.167 611.717 338.557 611.807 334.887 L 611.837 310.947 Z" style="stroke: rgb(0, 0, 0); fill: rgb(255, 255, 255);"/>
    <path id="Trazado_12963" class="st2" d="M 710.459 324.037 C 711.009 356.797 731.939 370.287 756.169 370.287 C 768.819 370.687 781.409 368.337 793.059 363.407 L 797.189 380.757 C 783.159 386.607 768.059 389.417 752.859 389.017 C 711.829 389.017 687.319 362.037 687.319 321.827 C 687.319 281.617 710.999 249.957 749.829 249.957 C 793.339 249.957 804.899 288.247 804.899 312.737 C 804.859 316.517 804.579 320.287 804.079 324.027 L 710.459 324.037 Z M 781.509 306.687 C 781.789 291.267 775.199 267.307 747.919 267.307 C 723.409 267.307 712.669 289.887 710.749 306.687 L 781.509 306.687 Z" style="stroke: rgb(0, 0, 0); fill: rgb(255, 255, 255);"/>
    <path id="Trazado_12964" class="st2" d="M 1021.947 327.357 L 1002.677 385.737 L 977.897 385.737 L 1040.967 200.137 L 1069.877 200.137 L 1133.217 385.737 L 1107.607 385.737 L 1087.787 327.357 L 1021.947 327.357 Z M 1082.797 308.637 L 1064.627 255.217 C 1060.497 243.097 1057.747 232.087 1054.987 221.347 L 1054.437 221.347 C 1051.687 232.357 1048.657 243.647 1045.077 254.937 L 1026.907 308.637 L 1082.797 308.637 Z" style="stroke: rgb(0, 0, 0); fill: rgb(255, 255, 255);"/>
    <path id="Trazado_12965" class="st1" d="M 537.907 424.257 C 537.007 422.617 535.207 421.677 533.347 421.857 C 532.257 421.817 531.197 422.167 530.347 422.837 C 529.437 423.687 528.797 424.787 528.497 425.987 C 527.977 427.857 527.657 429.777 527.547 431.717 C 527.367 434.087 527.277 436.977 527.277 440.397 C 527.247 443.347 527.377 446.297 527.647 449.237 C 527.787 451.027 528.177 452.787 528.797 454.467 C 529.147 455.497 529.837 456.377 530.757 456.967 C 531.597 457.407 532.547 457.627 533.497 457.607 C 534.317 457.607 535.127 457.457 535.887 457.157 C 536.707 456.797 537.387 456.187 537.817 455.407 C 538.457 454.257 538.887 452.997 539.087 451.697 C 539.447 449.617 539.607 447.507 539.567 445.387 L 549.287 445.387 C 549.297 447.877 549.097 450.357 548.687 452.807 C 548.347 454.987 547.577 457.067 546.437 458.947 C 545.307 460.727 543.687 462.157 541.787 463.067 C 539.337 464.147 536.667 464.657 533.987 464.557 C 530.987 464.697 527.997 464.087 525.287 462.797 C 523.157 461.657 521.427 459.887 520.327 457.737 C 519.107 455.277 518.337 452.617 518.077 449.877 C 517.407 443.157 517.407 436.387 518.077 429.667 C 518.327 426.907 519.077 424.217 520.307 421.737 C 521.417 419.557 523.147 417.757 525.267 416.547 C 527.957 415.187 530.957 414.547 533.967 414.687 C 536.797 414.547 539.617 415.127 542.167 416.377 C 544.037 417.367 545.597 418.847 546.667 420.657 C 547.657 422.387 548.287 424.287 548.527 426.257 C 548.767 428.127 548.887 430.007 548.897 431.897 L 539.167 431.897 C 539.317 429.297 538.887 426.677 537.907 424.257" style="stroke: rgb(0, 0, 0); fill: rgb(255, 255, 255);"/>
    <path id="Trazado_12966" class="st1" d="M 577.157 459.587 C 576.317 461.247 574.967 462.597 573.307 463.437 C 571.617 464.227 569.767 464.617 567.897 464.587 C 565.407 464.747 562.947 463.907 561.077 462.257 C 559.267 460.087 558.407 457.277 558.677 454.467 L 558.677 427.527 L 567.987 427.527 L 567.987 452.567 C 567.857 453.947 568.187 455.337 568.937 456.517 C 569.727 457.327 570.847 457.737 571.977 457.637 C 575.277 457.637 576.927 455.637 576.907 451.627 L 576.907 427.527 L 586.217 427.527 L 586.217 463.857 L 577.297 463.857 L 577.297 459.607 L 577.157 459.587 Z" style="stroke: rgb(0, 0, 0); fill: rgb(255, 255, 255);"/>
    <path id="Trazado_12967" class="st1" d="M 606.177 423.077 L 596.857 423.077 L 596.857 415.117 L 606.177 415.117 L 606.177 423.077 Z M 606.177 463.837 L 596.857 463.837 L 596.857 427.527 L 606.177 427.527 L 606.177 463.837 Z" style="stroke: rgb(0, 0, 0); fill: rgb(255, 255, 255);"/>
    <path id="Trazado_12968" class="st1" d="M 635.337 459.987 C 634.527 461.477 633.327 462.717 631.857 463.567 C 630.377 464.287 628.747 464.627 627.097 464.577 C 623.687 464.797 620.437 463.107 618.657 460.197 C 616.517 455.677 615.587 450.677 615.957 445.687 C 615.607 440.667 616.537 435.637 618.657 431.077 C 620.397 428.107 623.657 426.367 627.097 426.577 C 628.667 426.527 630.227 426.897 631.597 427.657 C 632.937 428.477 634.077 429.587 634.937 430.897 L 635.077 430.897 L 635.077 415.667 L 644.387 415.667 L 644.387 463.867 L 635.467 463.867 L 635.467 460.017 L 635.337 459.987 Z M 626.187 454.627 C 626.577 456.467 628.257 457.747 630.137 457.627 C 632.037 457.757 633.747 456.477 634.157 454.627 C 635.367 448.727 635.367 442.647 634.157 436.747 C 633.747 434.887 632.037 433.617 630.137 433.747 C 628.257 433.637 626.577 434.907 626.187 436.747 C 624.977 442.637 624.977 448.727 626.187 454.627" style="stroke: rgb(0, 0, 0); fill: rgb(255, 255, 255);"/>
    <path id="Trazado_12969" class="st1" d="M 654.637 437.787 C 654.577 435.967 654.917 434.157 655.647 432.487 C 656.267 431.137 657.207 429.957 658.377 429.047 C 659.577 428.137 660.967 427.497 662.427 427.157 C 664.047 426.767 665.717 426.567 667.387 426.577 C 669.667 426.507 671.947 426.787 674.147 427.397 C 675.647 427.807 677.017 428.597 678.127 429.687 C 679.077 430.677 679.747 431.897 680.057 433.227 C 680.407 434.707 680.577 436.217 680.557 437.727 L 680.557 456.827 C 680.527 458.157 680.607 459.487 680.797 460.807 C 680.977 461.847 681.277 462.867 681.697 463.847 L 672.787 463.847 C 672.477 463.267 672.237 462.637 672.077 461.997 C 671.917 461.337 671.777 460.697 671.627 460.067 L 671.487 460.067 C 670.697 461.687 669.377 462.977 667.747 463.747 C 665.977 464.367 664.117 464.647 662.247 464.587 C 660.827 464.627 659.417 464.337 658.137 463.747 C 657.047 463.217 656.117 462.417 655.437 461.417 C 654.747 460.397 654.247 459.267 653.947 458.077 C 653.647 456.877 653.497 455.637 653.497 454.397 C 653.467 452.907 653.657 451.417 654.047 449.977 C 654.367 448.817 654.927 447.727 655.697 446.797 C 656.487 445.887 657.447 445.137 658.537 444.607 C 659.867 443.957 661.257 443.437 662.687 443.057 L 667.957 441.647 C 669.047 441.447 670.057 440.937 670.857 440.167 C 671.447 439.367 671.737 438.387 671.667 437.397 C 671.737 436.227 671.387 435.067 670.687 434.127 C 669.807 433.247 668.587 432.817 667.347 432.947 C 666.127 432.857 664.937 433.327 664.117 434.227 C 663.357 435.207 662.967 436.427 663.027 437.667 L 663.027 438.687 L 654.657 438.687 L 654.657 437.787 L 654.637 437.787 Z M 669.627 446.857 C 668.987 447.117 668.337 447.337 667.667 447.497 C 666.127 447.717 664.707 448.427 663.617 449.527 C 662.757 450.617 662.327 451.987 662.397 453.377 C 662.357 454.617 662.637 455.847 663.207 456.957 C 663.737 457.947 664.797 458.527 665.907 458.437 C 666.567 458.437 667.227 458.327 667.867 458.137 C 668.547 457.937 669.177 457.597 669.727 457.157 C 670.317 456.677 670.787 456.077 671.107 455.397 C 671.487 454.597 671.677 453.717 671.647 452.837 L 671.647 445.687 C 671.027 446.167 670.347 446.567 669.627 446.857" style="stroke: rgb(0, 0, 0); fill: rgb(255, 255, 255);"/>
    <path id="Trazado_12970" class="st1" d="M 700.197 427.527 L 700.197 431.777 L 700.337 431.777 C 701.197 430.107 702.537 428.737 704.187 427.827 C 705.857 426.977 707.717 426.547 709.597 426.577 C 712.117 426.417 714.597 427.297 716.447 429.007 C 718.247 431.227 719.107 434.057 718.847 436.907 L 718.847 463.857 L 709.527 463.857 L 709.527 438.817 C 709.667 437.437 709.327 436.047 708.577 434.867 C 707.787 434.057 706.667 433.647 705.537 433.747 C 702.247 433.747 700.607 435.747 700.607 439.757 L 700.607 463.857 L 691.297 463.857 L 691.297 427.547 L 700.197 427.527 Z" style="stroke: rgb(0, 0, 0); fill: rgb(255, 255, 255);"/>
    <path id="Trazado_12971" class="st1" d="M 747.647 459.987 C 746.837 461.477 745.637 462.717 744.167 463.567 C 742.687 464.287 741.057 464.627 739.407 464.577 C 735.997 464.797 732.747 463.107 730.967 460.197 C 728.827 455.677 727.897 450.677 728.267 445.687 C 727.917 440.667 728.847 435.637 730.967 431.077 C 732.707 428.107 735.967 426.367 739.407 426.577 C 740.977 426.527 742.537 426.897 743.907 427.657 C 745.247 428.477 746.387 429.587 747.247 430.897 L 747.387 430.897 L 747.387 415.667 L 756.697 415.667 L 756.697 463.867 L 747.777 463.867 L 747.777 460.017 L 747.647 459.987 Z M 738.497 454.627 C 738.887 456.467 740.567 457.747 742.447 457.627 C 744.347 457.757 746.057 456.477 746.467 454.627 C 747.677 448.727 747.677 442.647 746.467 436.747 C 746.057 434.887 744.347 433.617 742.447 433.747 C 740.567 433.637 738.887 434.907 738.497 436.747 C 737.287 442.637 737.287 448.727 738.497 454.627" style="stroke: rgb(0, 0, 0); fill: rgb(255, 255, 255);"/>
    <path id="Trazado_12972" class="st1" d="M 766.547 437.447 C 766.937 435.307 767.767 433.277 768.977 431.477 C 770.097 429.887 771.627 428.627 773.397 427.827 C 775.517 426.937 777.807 426.517 780.117 426.577 C 782.487 426.467 784.857 426.847 787.067 427.697 C 788.857 428.437 790.387 429.687 791.457 431.297 C 792.617 433.127 793.397 435.167 793.757 437.307 C 794.237 440.067 794.467 442.877 794.437 445.677 C 794.467 448.437 794.217 451.197 793.697 453.907 C 793.307 456.037 792.477 458.077 791.267 459.877 C 790.167 461.457 788.627 462.687 786.847 463.427 C 784.707 464.247 782.427 464.637 780.127 464.577 C 777.767 464.687 775.397 464.337 773.177 463.527 C 771.387 462.837 769.857 461.607 768.787 460.017 C 767.617 458.197 766.837 456.147 766.497 454.007 C 766.017 451.257 765.787 448.467 765.817 445.677 C 765.767 442.917 766.017 440.157 766.547 437.447 M 775.247 450.807 C 775.307 452.177 775.517 453.537 775.887 454.857 C 776.157 455.857 776.677 456.767 777.407 457.497 C 778.147 458.157 779.117 458.487 780.107 458.437 C 781.947 458.477 783.567 457.247 784.017 455.467 C 785.457 449.027 785.457 442.337 784.017 435.897 C 783.567 434.117 781.937 432.887 780.107 432.927 C 779.117 432.877 778.147 433.217 777.407 433.877 C 776.677 434.607 776.147 435.507 775.887 436.507 C 775.517 437.827 775.307 439.187 775.247 440.557 C 775.157 442.137 775.117 443.837 775.117 445.687 C 775.117 447.537 775.157 449.237 775.247 450.817" style="stroke: rgb(0, 0, 0); fill: rgb(255, 255, 255);"/>
    <path id="Trazado_12973" class="st1" d="M 832.757 427.527 L 832.757 431.777 L 832.897 431.777 C 833.757 430.107 835.097 428.737 836.747 427.827 C 838.417 426.977 840.277 426.547 842.157 426.577 C 844.677 426.417 847.157 427.297 849.007 429.007 C 850.807 431.227 851.667 434.057 851.407 436.907 L 851.407 463.857 L 842.087 463.857 L 842.087 438.817 C 842.227 437.437 841.887 436.047 841.137 434.867 C 840.347 434.057 839.227 433.647 838.097 433.747 C 834.817 433.747 833.167 435.747 833.167 439.757 L 833.167 463.857 L 823.857 463.857 L 823.857 427.547 L 832.757 427.527 Z" style="stroke: rgb(0, 0, 0); fill: rgb(255, 255, 255);"/>
    <path id="Trazado_12974" class="st1" d="M 880.207 459.587 C 879.367 461.247 878.017 462.597 876.357 463.437 C 874.667 464.227 872.817 464.617 870.947 464.587 C 868.447 464.757 865.977 463.917 864.097 462.257 C 862.287 460.087 861.427 457.277 861.697 454.467 L 861.697 427.527 L 870.997 427.527 L 870.997 452.567 C 870.867 453.947 871.197 455.337 871.947 456.517 C 872.737 457.327 873.857 457.737 874.987 457.637 C 878.277 457.637 879.917 455.637 879.917 451.627 L 879.917 427.527 L 889.227 427.527 L 889.227 463.857 L 880.337 463.857 L 880.337 459.607 L 880.207 459.587 Z" style="stroke: rgb(0, 0, 0); fill: rgb(255, 255, 255);"/>
    <path id="Trazado_12975" class="st1" d="M 907.547 449.997 C 907.547 451.057 907.617 452.107 907.777 453.147 C 907.907 454.077 908.167 454.987 908.547 455.847 C 908.867 456.577 909.357 457.227 909.967 457.737 C 910.587 458.217 911.347 458.467 912.127 458.447 C 913.497 458.547 914.807 457.907 915.567 456.767 C 916.427 455.187 916.927 453.437 917.047 451.637 L 925.417 451.637 C 925.497 455.157 924.297 458.587 922.047 461.287 C 919.387 463.707 915.837 464.907 912.257 464.597 C 909.517 464.747 906.797 464.157 904.357 462.907 C 902.547 461.867 901.097 460.317 900.177 458.447 C 899.247 456.497 898.687 454.397 898.517 452.237 C 898.317 449.947 898.217 447.647 898.217 445.347 C 898.207 442.997 898.377 440.657 898.727 438.337 C 899.007 436.227 899.687 434.177 900.727 432.317 C 901.757 430.547 903.267 429.097 905.077 428.137 C 907.427 426.997 910.027 426.467 912.637 426.587 C 914.927 426.497 917.207 426.957 919.287 427.907 C 920.967 428.737 922.387 430.027 923.377 431.617 C 924.427 433.397 925.117 435.377 925.397 437.427 C 925.777 439.937 925.957 442.477 925.937 445.017 L 925.937 447.107 L 907.517 447.107 L 907.547 449.997 Z M 916.787 437.887 C 916.687 436.957 916.447 436.047 916.077 435.187 C 915.787 434.497 915.287 433.907 914.667 433.507 C 913.957 433.097 913.157 432.897 912.337 432.927 C 911.517 432.897 910.697 433.117 910.007 433.567 C 909.387 433.997 908.887 434.577 908.547 435.257 C 908.177 435.987 907.917 436.777 907.777 437.587 C 907.617 438.437 907.547 439.287 907.547 440.147 L 907.547 441.557 L 917.057 441.557 C 917.007 440.167 916.917 438.937 916.787 437.887" style="stroke: rgb(0, 0, 0); fill: rgb(255, 255, 255);"/>
    <path id="Trazado_12976" class="st1" d="M 941.757 453.177 C 941.687 454.557 942.137 455.917 943.007 456.997 C 943.927 457.997 945.257 458.537 946.607 458.447 C 947.847 458.507 949.067 458.127 950.047 457.367 C 950.947 456.537 951.417 455.347 951.327 454.127 C 951.397 453.137 951.027 452.157 950.317 451.457 C 949.617 450.837 948.817 450.347 947.957 450.007 L 941.407 447.647 C 939.147 446.957 937.137 445.627 935.597 443.827 C 934.237 442.017 933.547 439.787 933.637 437.517 C 933.627 436.077 933.877 434.647 934.377 433.297 C 934.877 431.967 935.687 430.777 936.737 429.817 C 937.947 428.757 939.357 427.947 940.887 427.457 C 942.857 426.817 944.927 426.517 946.997 426.557 C 950.347 426.287 953.677 427.247 956.377 429.257 C 958.477 431.217 959.587 434.017 959.417 436.887 L 959.417 438.377 L 951.057 438.377 C 951.167 436.937 950.857 435.497 950.157 434.227 C 949.387 433.267 948.177 432.767 946.957 432.907 C 945.857 432.887 944.777 433.227 943.887 433.887 C 942.987 434.587 942.487 435.687 942.567 436.817 C 942.557 437.697 942.857 438.557 943.417 439.247 C 944.287 440.147 945.407 440.767 946.627 441.047 L 952.227 442.937 C 954.627 443.597 956.787 444.937 958.437 446.817 C 959.737 448.727 960.367 451.017 960.237 453.327 C 960.277 455.057 959.937 456.777 959.217 458.357 C 958.567 459.737 957.617 460.947 956.417 461.897 C 955.167 462.877 953.717 463.567 952.167 463.927 C 950.387 464.347 948.567 464.547 946.737 464.527 C 944.537 464.577 942.347 464.327 940.217 463.787 C 938.687 463.397 937.267 462.637 936.107 461.557 C 935.097 460.567 934.357 459.317 933.977 457.957 C 933.557 456.407 933.347 454.807 933.367 453.197 L 933.367 451.917 L 941.737 451.917 L 941.757 453.177 Z" style="stroke: rgb(0, 0, 0); fill: rgb(255, 255, 255);"/>
    <path id="Trazado_12977" class="st1" d="M 980.357 417.127 L 980.357 427.517 L 985.767 427.517 L 985.767 433.857 L 980.357 433.857 L 980.357 453.487 C 980.267 454.547 980.497 455.617 980.997 456.557 C 981.697 457.267 982.687 457.597 983.667 457.457 C 984.027 457.457 984.387 457.457 984.747 457.417 C 985.107 457.377 985.447 457.367 985.757 457.317 L 985.757 463.847 C 984.717 463.847 983.717 463.887 982.757 463.947 C 981.797 464.007 980.767 464.047 979.687 464.047 C 978.207 464.077 976.717 463.957 975.267 463.677 C 974.247 463.497 973.317 462.977 972.637 462.187 C 971.987 461.327 971.557 460.317 971.387 459.257 C 971.137 457.737 971.027 456.197 971.047 454.667 L 971.047 433.877 L 966.317 433.877 L 966.317 427.537 L 971.047 427.537 L 971.047 417.147 L 980.357 417.127 Z" style="stroke: rgb(0, 0, 0); fill: rgb(255, 255, 255);"/>
    <path id="Trazado_12978" class="st1" d="M 1002.027 427.527 L 1002.027 432.387 L 1002.167 432.387 C 1003.017 430.757 1004.187 429.317 1005.607 428.167 C 1007.017 427.087 1008.757 426.527 1010.527 426.577 C 1010.797 426.577 1011.077 426.577 1011.377 426.617 C 1011.667 426.657 1011.957 426.677 1012.217 426.717 L 1012.217 435.627 C 1011.727 435.577 1011.247 435.547 1010.767 435.517 C 1010.287 435.487 1009.817 435.487 1009.317 435.487 C 1008.497 435.487 1007.677 435.607 1006.887 435.827 C 1006.077 436.047 1005.317 436.427 1004.657 436.937 C 1003.967 437.477 1003.407 438.177 1003.037 438.967 C 1002.607 439.937 1002.397 440.987 1002.437 442.037 L 1002.437 463.857 L 993.127 463.857 L 993.127 427.547 L 1002.027 427.527 Z" style="stroke: rgb(0, 0, 0); fill: rgb(255, 255, 255);"/>
    <path id="Trazado_12979" class="st1" d="M 1019.237 437.447 C 1019.627 435.307 1020.457 433.277 1021.667 431.477 C 1022.787 429.887 1024.317 428.627 1026.087 427.827 C 1028.207 426.937 1030.497 426.517 1032.807 426.577 C 1035.177 426.467 1037.547 426.847 1039.757 427.697 C 1041.547 428.437 1043.077 429.687 1044.147 431.297 C 1045.307 433.127 1046.087 435.167 1046.447 437.307 C 1046.927 440.067 1047.157 442.877 1047.127 445.677 C 1047.157 448.437 1046.907 451.197 1046.387 453.907 C 1045.997 456.037 1045.167 458.077 1043.957 459.877 C 1042.857 461.457 1041.317 462.687 1039.537 463.427 C 1037.397 464.247 1035.117 464.637 1032.817 464.577 C 1030.457 464.687 1028.087 464.337 1025.867 463.527 C 1024.077 462.837 1022.547 461.607 1021.477 460.017 C 1020.307 458.197 1019.527 456.147 1019.187 454.007 C 1018.707 451.257 1018.477 448.467 1018.507 445.677 C 1018.457 442.917 1018.707 440.157 1019.237 437.447 M 1027.937 450.807 C 1027.997 452.177 1028.207 453.537 1028.577 454.857 C 1028.847 455.857 1029.367 456.767 1030.097 457.497 C 1030.837 458.157 1031.807 458.487 1032.797 458.437 C 1034.637 458.477 1036.257 457.247 1036.707 455.467 C 1038.147 449.027 1038.147 442.337 1036.707 435.897 C 1036.257 434.117 1034.627 432.887 1032.797 432.927 C 1031.807 432.877 1030.837 433.217 1030.097 433.877 C 1029.367 434.607 1028.837 435.507 1028.577 436.507 C 1028.207 437.827 1027.997 439.187 1027.937 440.557 C 1027.847 442.137 1027.807 443.837 1027.807 445.687 C 1027.807 447.537 1027.847 449.237 1027.937 450.817" style="stroke: rgb(0, 0, 0); fill: rgb(255, 255, 255);"/>
    <path id="Trazado_12980" class="st1" d="M 1085.427 427.527 L 1085.427 431.237 L 1085.567 431.237 C 1086.557 429.727 1087.917 428.497 1089.517 427.657 C 1091.157 426.897 1092.947 426.527 1094.747 426.577 C 1096.667 426.517 1098.557 427.027 1100.177 428.067 C 1101.657 429.087 1102.707 430.627 1103.107 432.387 L 1103.247 432.387 C 1103.867 430.577 1105.097 429.037 1106.727 428.037 C 1108.457 427.037 1110.427 426.527 1112.427 426.577 C 1115.027 426.367 1117.577 427.407 1119.277 429.387 C 1120.887 431.757 1121.657 434.597 1121.467 437.447 L 1121.467 463.857 L 1112.157 463.857 L 1112.157 438.477 C 1112.237 437.247 1111.937 436.027 1111.307 434.967 C 1110.647 434.107 1109.587 433.647 1108.507 433.747 C 1107.167 433.687 1105.867 434.237 1104.967 435.237 C 1103.977 436.607 1103.507 438.287 1103.647 439.967 L 1103.647 463.847 L 1094.337 463.847 L 1094.337 438.467 C 1094.417 437.237 1094.127 436.017 1093.497 434.957 C 1092.837 434.097 1091.777 433.637 1090.697 433.737 C 1089.357 433.677 1088.057 434.227 1087.147 435.227 C 1086.157 436.597 1085.687 438.277 1085.827 439.957 L 1085.827 463.837 L 1076.517 463.837 L 1076.517 427.527 L 1085.427 427.527 Z" style="stroke: rgb(0, 0, 0); fill: rgb(255, 255, 255);"/>
    <path id="Trazado_12981" class="st1" d="M 1139.787 449.997 C 1139.787 451.057 1139.857 452.107 1140.017 453.147 C 1140.147 454.077 1140.407 454.987 1140.787 455.847 C 1141.107 456.577 1141.597 457.227 1142.207 457.737 C 1142.827 458.217 1143.587 458.467 1144.367 458.447 C 1145.737 458.547 1147.047 457.907 1147.807 456.767 C 1148.667 455.187 1149.167 453.437 1149.287 451.637 L 1157.657 451.637 C 1157.737 455.157 1156.537 458.587 1154.287 461.287 C 1151.627 463.707 1148.077 464.907 1144.497 464.597 C 1141.757 464.747 1139.037 464.157 1136.597 462.907 C 1134.787 461.867 1133.337 460.317 1132.417 458.447 C 1131.487 456.497 1130.927 454.397 1130.757 452.237 C 1130.557 449.947 1130.457 447.647 1130.457 445.347 C 1130.447 442.997 1130.627 440.657 1130.967 438.337 C 1131.257 436.227 1131.937 434.187 1132.987 432.327 C 1134.017 430.557 1135.527 429.107 1137.337 428.147 C 1139.687 427.007 1142.287 426.477 1144.897 426.597 C 1147.187 426.507 1149.467 426.967 1151.547 427.917 C 1153.227 428.747 1154.647 430.037 1155.637 431.627 C 1156.697 433.407 1157.377 435.387 1157.657 437.437 C 1158.037 439.947 1158.217 442.487 1158.197 445.027 L 1158.197 447.117 L 1139.777 447.117 L 1139.787 449.997 Z M 1149.027 437.887 C 1148.927 436.957 1148.687 436.047 1148.317 435.187 C 1148.027 434.497 1147.527 433.907 1146.907 433.507 C 1146.197 433.097 1145.397 432.897 1144.577 432.927 C 1143.757 432.897 1142.937 433.117 1142.247 433.567 C 1141.627 433.997 1141.127 434.577 1140.787 435.257 C 1140.417 435.987 1140.157 436.777 1140.017 437.587 C 1139.857 438.437 1139.787 439.287 1139.787 440.147 L 1139.787 441.557 L 1149.297 441.557 C 1149.257 440.167 1149.167 438.937 1149.027 437.887" style="stroke: rgb(0, 0, 0); fill: rgb(255, 255, 255);"/>
    <path id="Trazado_12982" class="st1" d="M 1185.677 459.987 C 1184.867 461.477 1183.667 462.717 1182.197 463.567 C 1180.717 464.287 1179.087 464.627 1177.437 464.577 C 1174.027 464.797 1170.777 463.107 1168.997 460.197 C 1166.857 455.677 1165.927 450.677 1166.297 445.687 C 1165.947 440.667 1166.877 435.637 1168.997 431.077 C 1170.737 428.107 1173.997 426.367 1177.437 426.577 C 1179.007 426.527 1180.567 426.897 1181.937 427.657 C 1183.277 428.477 1184.417 429.587 1185.277 430.897 L 1185.417 430.897 L 1185.417 415.667 L 1194.727 415.667 L 1194.727 463.867 L 1185.817 463.867 L 1185.817 460.017 L 1185.677 459.987 Z M 1176.537 454.627 C 1176.927 456.467 1178.607 457.747 1180.487 457.627 C 1182.387 457.757 1184.097 456.477 1184.507 454.627 C 1185.717 448.727 1185.717 442.647 1184.507 436.747 C 1184.097 434.887 1182.387 433.617 1180.487 433.747 C 1178.607 433.637 1176.927 434.907 1176.537 436.747 C 1175.317 442.637 1175.317 448.727 1176.537 454.627" style="stroke: rgb(0, 0, 0); fill: rgb(255, 255, 255);"/>
    <path id="Trazado_12983" class="st1" d="M 1214.717 423.077 L 1205.397 423.077 L 1205.397 415.117 L 1214.717 415.117 L 1214.717 423.077 Z M 1214.717 463.837 L 1205.397 463.837 L 1205.397 427.527 L 1214.717 427.527 L 1214.717 463.837 Z" style="stroke: rgb(0, 0, 0); fill: rgb(255, 255, 255);"/>
    <path id="Trazado_12984" class="st1" d="M 1224.897 437.447 C 1225.287 435.307 1226.117 433.277 1227.327 431.477 C 1228.447 429.887 1229.977 428.627 1231.747 427.827 C 1233.867 426.937 1236.157 426.517 1238.457 426.577 C 1240.827 426.467 1243.197 426.847 1245.407 427.697 C 1247.197 428.437 1248.727 429.687 1249.797 431.297 C 1250.967 433.127 1251.747 435.167 1252.097 437.307 C 1252.577 440.067 1252.807 442.867 1252.777 445.677 C 1252.807 448.437 1252.557 451.197 1252.027 453.907 C 1251.637 456.037 1250.807 458.077 1249.597 459.877 C 1248.497 461.457 1246.957 462.687 1245.177 463.427 C 1243.037 464.247 1240.757 464.637 1238.457 464.577 C 1236.097 464.687 1233.727 464.337 1231.507 463.527 C 1229.717 462.837 1228.187 461.607 1227.127 460.017 C 1225.957 458.197 1225.177 456.147 1224.827 454.007 C 1224.347 451.257 1224.127 448.467 1224.157 445.677 C 1224.117 442.917 1224.367 440.157 1224.897 437.447 M 1233.597 450.807 C 1233.647 452.177 1233.867 453.537 1234.237 454.857 C 1234.497 455.857 1235.027 456.767 1235.757 457.497 C 1236.497 458.157 1237.467 458.487 1238.457 458.437 C 1240.297 458.477 1241.917 457.247 1242.377 455.467 C 1243.817 449.017 1243.817 442.337 1242.377 435.897 C 1241.917 434.117 1240.297 432.887 1238.457 432.927 C 1237.467 432.877 1236.497 433.217 1235.757 433.877 C 1235.027 434.607 1234.497 435.507 1234.237 436.507 C 1233.867 437.827 1233.647 439.187 1233.597 440.557 C 1233.507 442.137 1233.457 443.837 1233.457 445.687 C 1233.457 447.537 1233.497 449.237 1233.597 450.817" style="stroke: rgb(0, 0, 0); fill: rgb(255, 255, 255);"/>
    <path id="Trazado_12985" class="st1" d="M 1261.817 437.787 C 1261.757 435.967 1262.107 434.157 1262.827 432.487 C 1263.447 431.137 1264.387 429.957 1265.557 429.047 C 1266.757 428.137 1268.147 427.497 1269.607 427.157 C 1271.227 426.767 1272.897 426.567 1274.567 426.577 C 1276.847 426.507 1279.127 426.787 1281.327 427.397 C 1282.827 427.807 1284.197 428.597 1285.307 429.687 C 1286.257 430.677 1286.917 431.897 1287.237 433.227 C 1287.587 434.707 1287.757 436.217 1287.737 437.727 L 1287.737 456.827 C 1287.707 458.157 1287.787 459.487 1287.977 460.807 C 1288.157 461.847 1288.467 462.867 1288.877 463.847 L 1279.967 463.847 C 1279.657 463.267 1279.417 462.637 1279.257 461.997 C 1279.097 461.337 1278.957 460.697 1278.807 460.067 L 1278.677 460.067 C 1277.887 461.687 1276.567 462.977 1274.937 463.747 C 1273.167 464.367 1271.307 464.647 1269.437 464.587 C 1268.017 464.627 1266.607 464.337 1265.317 463.747 C 1264.227 463.217 1263.297 462.417 1262.617 461.417 C 1261.927 460.397 1261.427 459.267 1261.127 458.077 C 1260.827 456.877 1260.677 455.637 1260.677 454.397 C 1260.647 452.907 1260.827 451.417 1261.217 449.977 C 1261.537 448.817 1262.097 447.727 1262.867 446.797 C 1263.657 445.887 1264.617 445.137 1265.697 444.607 C 1267.027 443.957 1268.417 443.437 1269.847 443.057 L 1275.107 441.647 C 1276.197 441.447 1277.207 440.937 1278.017 440.167 C 1278.607 439.367 1278.897 438.387 1278.827 437.397 C 1278.897 436.227 1278.547 435.067 1277.847 434.127 C 1276.967 433.247 1275.747 432.817 1274.507 432.947 C 1273.287 432.857 1272.097 433.327 1271.267 434.227 C 1270.507 435.207 1270.127 436.427 1270.187 437.667 L 1270.187 438.687 L 1261.817 438.687 L 1261.817 437.787 Z M 1276.797 446.857 C 1276.167 447.117 1275.507 447.337 1274.837 447.497 C 1273.297 447.717 1271.877 448.427 1270.787 449.527 C 1269.927 450.617 1269.497 451.987 1269.567 453.377 C 1269.527 454.617 1269.807 455.847 1270.377 456.957 C 1270.907 457.937 1271.967 458.527 1273.077 458.437 C 1273.737 458.437 1274.397 458.327 1275.037 458.137 C 1275.707 457.937 1276.337 457.607 1276.887 457.157 C 1277.477 456.677 1277.947 456.077 1278.277 455.397 C 1278.657 454.597 1278.837 453.717 1278.817 452.837 L 1278.817 445.687 C 1278.207 446.167 1277.527 446.567 1276.797 446.857" style="stroke: rgb(0, 0, 0); fill: rgb(255, 255, 255);"/>
    <path id="Trazado_12986" class="st1" d="M 1307.367 427.527 L 1307.367 431.237 L 1307.507 431.237 C 1308.497 429.727 1309.857 428.497 1311.457 427.657 C 1313.097 426.897 1314.887 426.527 1316.687 426.577 C 1318.607 426.517 1320.497 427.027 1322.117 428.067 C 1323.597 429.087 1324.647 430.627 1325.047 432.387 L 1325.187 432.387 C 1325.807 430.577 1327.037 429.037 1328.667 428.037 C 1330.397 427.037 1332.367 426.527 1334.367 426.577 C 1336.967 426.367 1339.517 427.407 1341.217 429.387 C 1342.827 431.757 1343.597 434.597 1343.407 437.447 L 1343.407 463.857 L 1334.087 463.857 L 1334.087 438.477 C 1334.167 437.247 1333.867 436.027 1333.237 434.967 C 1332.577 434.107 1331.517 433.647 1330.437 433.747 C 1329.097 433.687 1327.797 434.237 1326.897 435.237 C 1325.907 436.607 1325.437 438.287 1325.577 439.967 L 1325.577 463.847 L 1316.267 463.847 L 1316.267 438.467 C 1316.347 437.237 1316.057 436.017 1315.427 434.957 C 1314.767 434.097 1313.707 433.637 1312.627 433.737 C 1311.287 433.677 1309.987 434.227 1309.077 435.227 C 1308.087 436.597 1307.617 438.277 1307.757 439.957 L 1307.757 463.837 L 1298.447 463.837 L 1298.447 427.527 L 1307.367 427.527 Z" style="stroke: rgb(0, 0, 0); fill: rgb(255, 255, 255);"/>
    <path id="Trazado_12987" class="st1" d="M 1363.057 415.657 L 1363.057 430.907 L 1363.197 430.907 C 1364.057 429.597 1365.197 428.487 1366.537 427.667 C 1367.917 426.907 1369.467 426.537 1371.037 426.587 C 1374.477 426.377 1377.737 428.117 1379.467 431.087 C 1381.597 435.647 1382.527 440.677 1382.167 445.697 C 1382.527 450.687 1381.597 455.687 1379.467 460.207 C 1377.687 463.117 1374.437 464.807 1371.037 464.587 C 1369.387 464.637 1367.757 464.297 1366.277 463.577 C 1364.817 462.717 1363.617 461.487 1362.807 459.997 L 1362.667 459.997 L 1362.667 463.847 L 1353.757 463.847 L 1353.757 415.637 L 1363.057 415.637 L 1363.057 415.657 Z M 1363.957 454.627 C 1364.577 456.827 1366.867 458.107 1369.067 457.477 C 1370.447 457.087 1371.527 456.007 1371.917 454.627 C 1373.127 448.727 1373.127 442.647 1371.917 436.747 C 1371.297 434.547 1369.007 433.267 1366.807 433.897 C 1365.427 434.287 1364.347 435.367 1363.957 436.747 C 1362.737 442.647 1362.737 448.727 1363.957 454.627" style="stroke: rgb(0, 0, 0); fill: rgb(255, 255, 255);"/>
    <path id="Trazado_12988" class="st1" d="M 1401.257 423.077 L 1391.937 423.077 L 1391.937 415.117 L 1401.257 415.117 L 1401.257 423.077 Z M 1401.257 463.837 L 1391.937 463.837 L 1391.937 427.527 L 1401.257 427.527 L 1401.257 463.837 Z" style="stroke: rgb(0, 0, 0); fill: rgb(255, 255, 255);"/>
    <path id="Trazado_12989" class="st1" d="M 1419.887 449.997 C 1419.887 451.057 1419.957 452.107 1420.117 453.147 C 1420.247 454.077 1420.507 454.987 1420.887 455.847 C 1421.207 456.577 1421.697 457.227 1422.307 457.737 C 1422.927 458.217 1423.687 458.467 1424.467 458.447 C 1425.837 458.547 1427.147 457.907 1427.907 456.767 C 1428.767 455.187 1429.267 453.437 1429.387 451.637 L 1437.757 451.637 C 1437.837 455.157 1436.637 458.587 1434.387 461.287 C 1431.727 463.707 1428.177 464.907 1424.597 464.597 C 1421.857 464.747 1419.137 464.157 1416.697 462.907 C 1414.887 461.867 1413.437 460.317 1412.517 458.447 C 1411.587 456.497 1411.027 454.397 1410.857 452.237 C 1410.657 449.947 1410.557 447.647 1410.557 445.347 C 1410.547 442.997 1410.727 440.657 1411.067 438.337 C 1411.357 436.227 1412.037 434.187 1413.087 432.327 C 1414.117 430.557 1415.627 429.107 1417.437 428.147 C 1419.787 427.007 1422.387 426.477 1424.997 426.597 C 1427.287 426.507 1429.567 426.967 1431.647 427.917 C 1433.327 428.747 1434.747 430.037 1435.737 431.627 C 1436.797 433.407 1437.477 435.387 1437.757 437.437 C 1438.137 439.947 1438.317 442.487 1438.297 445.027 L 1438.297 447.117 L 1419.877 447.117 L 1419.887 449.997 Z M 1429.127 437.887 C 1429.027 436.957 1428.787 436.047 1428.417 435.187 C 1428.127 434.497 1427.627 433.907 1427.007 433.507 C 1426.297 433.097 1425.497 432.897 1424.677 432.927 C 1423.857 432.897 1423.037 433.117 1422.347 433.567 C 1421.727 433.997 1421.227 434.577 1420.887 435.257 C 1420.517 435.987 1420.257 436.777 1420.117 437.587 C 1419.957 438.437 1419.887 439.287 1419.887 440.147 L 1419.887 441.557 L 1429.397 441.557 C 1429.357 440.167 1429.267 438.937 1429.127 437.887" style="stroke: rgb(0, 0, 0); fill: rgb(255, 255, 255);"/>
    <path id="Trazado_12990" class="st1" d="M 1456.197 427.527 L 1456.197 431.777 L 1456.337 431.777 C 1457.197 430.107 1458.537 428.737 1460.187 427.827 C 1461.857 426.977 1463.717 426.547 1465.597 426.577 C 1468.117 426.417 1470.597 427.297 1472.447 429.007 C 1474.247 431.227 1475.107 434.057 1474.847 436.907 L 1474.847 463.857 L 1465.537 463.857 L 1465.537 438.817 C 1465.677 437.437 1465.337 436.047 1464.587 434.867 C 1463.797 434.057 1462.677 433.647 1461.547 433.747 C 1458.257 433.747 1456.617 435.747 1456.617 439.757 L 1456.617 463.857 L 1447.307 463.857 L 1447.307 427.547 L 1456.197 427.527 Z" style="stroke: rgb(0, 0, 0); fill: rgb(255, 255, 255);"/>
    <path id="Trazado_12991" class="st1" d="M 1496.497 417.127 L 1496.497 427.517 L 1501.907 427.517 L 1501.907 433.857 L 1496.497 433.857 L 1496.497 453.487 C 1496.407 454.547 1496.637 455.617 1497.137 456.557 C 1497.837 457.267 1498.827 457.597 1499.807 457.457 C 1500.167 457.457 1500.527 457.457 1500.877 457.417 C 1501.237 457.377 1501.577 457.367 1501.897 457.317 L 1501.897 463.847 C 1500.857 463.847 1499.857 463.887 1498.897 463.947 C 1497.937 464.007 1496.907 464.047 1495.827 464.047 C 1494.347 464.077 1492.857 463.957 1491.407 463.677 C 1490.387 463.497 1489.457 462.977 1488.777 462.187 C 1488.117 461.327 1487.697 460.317 1487.527 459.257 C 1487.277 457.737 1487.167 456.197 1487.187 454.667 L 1487.187 433.877 L 1482.457 433.877 L 1482.457 427.537 L 1487.187 427.537 L 1487.187 417.147 L 1496.497 417.127 Z" style="stroke: rgb(0, 0, 0); fill: rgb(255, 255, 255);"/>
    <path id="Trazado_12992" class="st1" d="M 1517.207 449.997 C 1517.207 451.057 1517.277 452.107 1517.437 453.147 C 1517.567 454.077 1517.827 454.987 1518.207 455.847 C 1518.527 456.577 1519.017 457.227 1519.627 457.737 C 1520.247 458.217 1521.007 458.467 1521.787 458.447 C 1523.157 458.547 1524.467 457.907 1525.227 456.767 C 1526.087 455.187 1526.587 453.437 1526.707 451.637 L 1535.077 451.637 C 1535.157 455.157 1533.957 458.587 1531.707 461.287 C 1529.047 463.707 1525.497 464.907 1521.917 464.597 C 1519.177 464.747 1516.457 464.157 1514.017 462.907 C 1512.207 461.867 1510.757 460.317 1509.837 458.447 C 1508.907 456.497 1508.347 454.397 1508.177 452.237 C 1507.977 449.947 1507.877 447.647 1507.877 445.347 C 1507.867 442.997 1508.047 440.657 1508.387 438.337 C 1508.677 436.227 1509.357 434.187 1510.407 432.327 C 1511.437 430.557 1512.947 429.107 1514.757 428.147 C 1517.107 427.007 1519.707 426.477 1522.317 426.597 C 1524.607 426.507 1526.887 426.967 1528.967 427.917 C 1530.647 428.747 1532.067 430.037 1533.057 431.627 C 1534.117 433.407 1534.797 435.387 1535.077 437.437 C 1535.457 439.947 1535.637 442.487 1535.617 445.027 L 1535.617 447.117 L 1517.197 447.117 L 1517.207 449.997 Z M 1526.457 437.887 C 1526.357 436.957 1526.117 436.047 1525.747 435.187 C 1525.457 434.497 1524.957 433.907 1524.337 433.507 C 1523.627 433.097 1522.827 432.897 1522.007 432.927 C 1521.187 432.897 1520.367 433.117 1519.677 433.567 C 1519.057 433.997 1518.557 434.577 1518.217 435.257 C 1517.847 435.987 1517.587 436.777 1517.447 437.587 C 1517.287 438.437 1517.217 439.287 1517.217 440.147 L 1517.217 441.557 L 1526.727 441.557 C 1526.677 440.167 1526.587 438.937 1526.457 437.887" style="stroke: rgb(0, 0, 0); fill: rgb(255, 255, 255);"/>
  </g>
</svg>